<?xml version="1.0" standalone="no"?>
<!DOCTYPE svg PUBLIC "-//W3C//DTD SVG 20010904//EN"
 "http://www.w3.org/TR/2001/REC-SVG-20010904/DTD/svg10.dtd">
<svg version="1.0" xmlns="http://www.w3.org/2000/svg"
 width="800.000000pt" height="800.000000pt" viewBox="0 0 800.000000 800.000000"
 preserveAspectRatio="xMidYMid meet">
<metadata>
Created by potrace 1.16, written by Peter Selinger 2001-2019
</metadata>
<g transform="translate(0.000000,800.000000) scale(0.100000,-0.100000)"
fill="#000000" stroke="none">
<path d="M5472 6868 c-7 -7 -12 -23 -12 -37 0 -43 -38 -282 -55 -346 -25 -93
-72 -179 -139 -252 -75 -82 -137 -123 -186 -123 -37 0 -111 39 -139 74 -13 15
-62 46 -75 46 -7 0 -34 -91 -41 -140 -16 -111 -108 -332 -159 -379 -76 -71
-193 8 -441 299 -133 156 -166 192 -198 213 l-27 18 -20 -45 -19 -46 -142 145
c-78 79 -148 153 -156 165 -18 26 -68 51 -87 44 -15 -6 -29 -55 -45 -159 -27
-172 -64 -353 -78 -374 -13 -20 -21 -22 -51 -18 -21 4 -100 13 -177 22 -192
22 -276 36 -599 100 -307 61 -422 95 -536 157 -300 165 -322 174 -333 144 -8
-21 289 -526 393 -667 60 -81 111 -179 186 -355 51 -123 54 -169 12 -210 -14
-14 -93 -47 -203 -84 -176 -61 -235 -85 -235 -96 0 -19 35 -54 152 -156 150
-130 223 -204 261 -266 53 -82 34 -111 -129 -203 -132 -74 -205 -105 -294
-125 -41 -9 -94 -23 -117 -31 -42 -14 -42 -15 -29 -41 8 -15 63 -74 122 -132
214 -208 234 -229 234 -244 0 -14 -81 -46 -117 -46 -46 0 17 -48 159 -122 58
-30 137 -76 175 -101 83 -55 173 -147 173 -177 0 -91 -191 -179 -386 -180 -54
0 -77 -4 -94 -18 -30 -24 -18 -43 61 -99 58 -42 72 -69 51 -98 -18 -26 -103
-86 -152 -109 -123 -57 -200 -63 -495 -40 -83 6 -105 -3 -83 -35 8 -12 91 -80
184 -153 205 -159 406 -334 425 -371 7 -12 6 -29 -3 -53 -17 -47 -3 -57 100
-73 113 -18 153 -30 195 -57 44 -29 46 -45 11 -91 -16 -21 -24 -43 -22 -59 3
-24 16 -30 173 -83 352 -120 395 -141 395 -198 0 -85 -73 -283 -154 -417 -67
-111 -76 -140 -47 -155 15 -8 33 -8 68 1 31 7 154 12 343 13 259 1 310 4 419
24 546 100 1035 343 1386 688 86 84 152 163 285 338 95 125 113 146 259 304
92 98 116 118 178 147 39 19 80 34 90 34 11 0 32 -14 49 -31 16 -17 135 -124
264 -237 129 -114 253 -223 275 -243 57 -53 97 -84 122 -97 18 -10 26 -8 53
14 52 45 41 69 -62 129 -176 101 -480 334 -610 467 l-78 79 0 62 c0 82 23 169
63 235 34 58 135 159 207 207 238 160 617 452 711 546 128 129 304 409 325
517 8 39 3 40 -76 8 -33 -14 -62 -21 -64 -18 -6 10 5 64 69 337 98 419 108
509 84 758 -12 128 -30 191 -51 185 -7 -2 -65 -82 -129 -178 -87 -132 -124
-179 -150 -193 -62 -32 -122 -1 -176 91 -45 76 -56 128 -88 405 -15 128 -29
187 -45 187 -11 0 -56 -53 -85 -100 -32 -51 -42 -60 -71 -60 -25 0 -89 66
-127 131 -14 24 -84 177 -156 340 -183 419 -230 507 -361 679 -60 79 -83 93
-108 68z m-234 -2585 l-283 -283 283 -282 282 -283 -282 -282 -283 -283 -282
282 -283 283 -282 -282 -283 -281 -285 279 -285 279 284 284 283 284 -283 280
-284 281 280 280 c154 155 283 280 287 279 4 -2 134 -126 289 -277 l281 -274
281 281 282 282 282 -282 283 -283 -282 -282z"/>
</g>
</svg>
