<?xml version="1.0" standalone="no"?>
<!DOCTYPE svg PUBLIC "-//W3C//DTD SVG 20010904//EN"
 "http://www.w3.org/TR/2001/REC-SVG-20010904/DTD/svg10.dtd">
<svg version="1.0" xmlns="http://www.w3.org/2000/svg"
 width="360.000000pt" height="360.000000pt" viewBox="0 0 360.000000 360.000000"
 preserveAspectRatio="xMidYMid meet">
<metadata>
Created by potrace 1.16, written by Peter Selinger 2001-2019
</metadata>
<g transform="translate(0.000000,360.000000) scale(0.100000,-0.100000)"
fill="#000000" stroke="none">
<path d="M1385 3594 c-251 -37 -486 -126 -695 -265 -132 -87 -335 -291 -423
-425 -180 -271 -267 -562 -267 -889 0 -330 87 -619 271 -895 85 -128 291 -334
418 -419 215 -143 445 -230 686 -262 132 -17 425 -6 540 20 201 47 373 119
534 224 l98 65 354 -355 c200 -200 371 -363 393 -375 60 -31 160 -23 217 17
83 59 116 185 70 273 -11 20 -179 196 -374 391 l-355 354 65 98 c119 183 197
381 235 603 29 170 22 451 -15 606 -70 292 -197 532 -390 736 -237 251 -510
405 -847 479 -73 16 -441 30 -515 19z m340 -435 c178 -22 368 -95 519 -199 87
-60 237 -211 295 -298 149 -221 220 -499 193 -757 -56 -532 -455 -951 -982
-1031 -357 -53 -723 69 -982 330 -448 451 -446 1174 4 1624 254 254 600 374
953 331z"/>
</g>
</svg>
